<svg width="1024" height="1024" viewBox="0 0 1024 1024" fill="none" xmlns="http://www.w3.org/2000/svg">
<g filter="url(#filter0_d_1_2)">
<path d="M225.365 227.306C261.663 247.813 306.708 178.875 381.054 210.726L639.079 210.546C713.425 178.696 758.469 247.633 794.768 227.126C776.837 266.831 845.061 313.516 809.637 383.762L809.504 640.238C844.928 710.484 776.704 757.169 794.635 796.874C758.337 776.367 713.292 845.304 638.946 813.454L380.921 813.274C306.575 845.125 261.531 776.187 225.232 796.694C243.163 756.99 174.939 710.304 210.363 640.058L210.496 383.942C175.072 313.696 243.296 267.011 225.365 227.306Z" fill="#EFEFEF"/>
<path d="M225.365 227.306C261.663 247.813 306.708 178.875 381.054 210.726L639.079 210.546C713.425 178.696 758.469 247.633 794.768 227.126C776.837 266.831 845.061 313.516 809.637 383.762L809.504 640.238C844.928 710.484 776.704 757.169 794.635 796.874C758.337 776.367 713.292 845.304 638.946 813.454L380.921 813.274C306.575 845.125 261.531 776.187 225.232 796.694C243.163 756.99 174.939 710.304 210.363 640.058L210.496 383.942C175.072 313.696 243.296 267.011 225.365 227.306Z" stroke="#EFEFEF" stroke-width="21" stroke-linecap="round"/>
</g>
<g filter="url(#filter1_d_1_2)">
<path d="M374.815 195.148C296.872 161.757 249.647 234.03 211.592 212.531C230.391 254.156 158.866 303.101 196.004 376.746M645.324 194.96C723.268 161.568 770.492 233.841 808.547 212.342C789.749 253.968 861.273 302.912 824.136 376.557M374.676 826.852C296.732 860.243 249.508 787.97 211.453 809.469C230.251 767.844 158.727 718.899 195.864 645.254M645.185 827.04C723.128 860.432 770.353 788.159 808.408 809.658C789.609 768.032 861.134 719.088 823.996 645.443" stroke="#EFEFEF" stroke-width="21" stroke-linecap="round"/>
</g>
<g filter="url(#filter2_d_1_2)">
<path d="M368.576 180.571C287.035 145.638 237.631 221.246 197.82 198.755C217.486 242.302 142.66 293.505 181.512 370.55M651.57 180.374C733.111 145.44 782.515 221.049 822.326 198.558C802.66 242.105 877.486 293.308 838.634 370.352M368.43 841.429C286.889 876.362 237.485 800.754 197.674 823.245C217.34 779.698 142.514 728.495 181.366 651.45M651.424 841.626C732.965 876.56 782.369 800.951 822.18 823.442C802.514 779.895 877.34 728.692 838.488 651.648" stroke="#EFEFEF" stroke-width="21" stroke-linecap="round"/>
</g>
<g filter="url(#filter3_d_1_2)">
<path d="M363 166C278 129.5 226.5 208.5 185 185C205.5 230.5 127.5 284 168 364.5M658 165.794C743 129.294 794.5 208.294 836 184.794C815.5 230.294 893.5 283.794 853 364.294M362.848 856.5C277.848 893 226.348 814 184.848 837.5C205.348 792 127.348 738.5 167.848 658M657.848 856.706C742.848 893.206 794.348 814.206 835.848 837.706C815.348 792.206 893.348 738.706 852.848 658.206" stroke="#EFEFEF" stroke-width="21" stroke-linecap="round"/>
</g>
<path d="M363 166C278 129.5 226.5 208.5 185 185C205.5 230.5 127.5 284 168 364.5M658 165.794C743 129.294 794.5 208.294 836 184.794C815.5 230.294 893.5 283.794 853 364.294M362.848 856.5C277.848 893 226.348 814 184.848 837.5C205.348 792 127.348 738.5 167.848 658M657.848 856.706C742.848 893.206 794.348 814.206 835.848 837.706C815.348 792.206 893.348 738.706 852.848 658.206" stroke="#D4AD68" stroke-width="2" stroke-linecap="round" stroke-linejoin="round"/>
<g filter="url(#filter4_d_1_2)">
<path d="M425 87C465.5 67 502.5 60 511 34C519.5 60 556.5 67 597 87C637.5 107 659 144 659 166.5C721 166.5 757.5 219.5 758 264.5V267.485C817.728 265.778 858.488 315.633 854 363.5V364.5C885.5 364.5 908.5 383.5 927.5 411.5C946.5 439.5 954.5 492.5 983 511.5V512C954.5 531 946.5 584 927.5 612C908.5 640 885.5 659 854 659V660C858.488 707.867 817.728 757.722 758 756.016V759C757.5 804 721 857 659 857C659 879.5 637.5 916.5 597 936.5C556.5 956.5 519.5 963.5 511 989.5C502.5 963.5 465.5 956.5 425 936.5C384.5 916.5 363 879.5 363 857C301 857 264.5 804 264 759V756.016C204.272 757.722 163.513 707.867 168 660V659C136.5 659 113.5 640 94.5 612C75.5 584 67.5 531 39 512V511.5C67.5 492.5 75.5 439.5 94.5 411.5C113.5 383.5 136.5 364.5 168 364.5V363.5C163.513 315.633 204.272 265.778 264 267.485V264.5C264.5 219.5 301 166.5 363 166.5C363 144 384.5 107 425 87Z" fill="#EFEFEF"/>
</g>
<path d="M377.5 179C377.5 179 373 135 423 105C472.701 75.1792 484.855 83.3998 512.5 60.4176C540.145 83.3998 552.299 75.1792 602 105C652 135 647.5 179 647.5 179V180.5C704.5 176 744.5 218 748.5 279V280C813.5 277.5 847 322.5 843.5 381.5H864.215C867.059 381.5 869.921 381.844 872.615 382.757C929.313 401.972 936.171 485.136 964.5 512L964.742 512.246C936.629 539.368 929.641 622.086 873.115 641.243C870.421 642.156 867.559 642.5 864.715 642.5H844C847.5 701.5 814 746.5 749 744V745C745 806 705 848 648 843.5V845C648 845 652.5 889 602.5 919C552.799 948.821 540.645 940.6 513 963.582C485.355 940.6 473.201 948.821 423.5 919C373.5 889 378 845 378 845V843.5C321 848 281 806 277 745V744C212 746.5 178.5 701.5 182 642.5H161.285C158.441 642.5 155.579 642.156 152.885 641.243C96.1871 622.028 89.3288 538.864 61 512L60.7606 511.751C88.8715 484.626 95.8613 401.913 152.385 382.756C155.079 381.844 157.941 381.5 160.785 381.5H181.5C178 322.5 211.5 277.5 276.5 280V279C280.5 218 320.5 176 377.5 180.5V179Z" stroke="url(#paint0_angular_1_2)" stroke-width="2" stroke-linejoin="round"/>
<mask id="mask0_1_2" style="mask-type:luminance" maskUnits="userSpaceOnUse" x="212" y="214" width="553" height="598">
<path d="M212 214.84H764.406V812H212V214.84Z" fill="white"/>
</mask>
<g mask="url(#mask0_1_2)">
<path d="M659.845 614.891C659.557 628.108 664.393 641.092 671.265 652.22C680.394 647.546 690.519 643.081 696.428 634.318C698.365 625.047 694.392 615.676 689.833 607.72C685.993 601.841 679.985 595.398 672.216 596.713C664.758 599.277 659.679 607.057 659.845 614.891ZM270.383 569.275C266.289 571.905 259.328 572.977 259.328 572.977C250.752 591.431 241.081 615.068 242.121 635.832C242.232 645.943 246.238 656.055 253.065 663.503C258.277 669.514 267.108 669.713 274.345 668.387C289.084 663.735 298.69 650.861 308.87 640.087C329.054 618.936 355.524 605.167 382.591 594.89C413.143 583.099 445.068 572.91 471.482 552.854C459.343 516.044 427.219 491.556 398.603 467.654C351.429 495.866 320.423 545.218 270.383 569.275ZM271.512 368.531C264.917 378.012 257.657 387.151 252.777 397.693C247.333 408.103 243.416 425.927 250.763 431.872C252.91 434.933 261.464 434.701 269.487 422.723C267.971 436.58 254.814 459.134 244.367 455.819C241.667 458.515 226.518 490.407 222.734 504.574C219.547 518.597 219.669 534.941 228.986 546.699C237.794 555.44 252.899 556.511 263.246 549.837C307.83 524.144 342.234 485.081 379.935 450.846C343.75 423.452 307.752 395.826 271.512 368.531ZM542.127 217.835C552.285 215.901 565.088 219.326 569.072 229.791C571.595 243.151 565.044 256.125 558.593 267.429C543.665 293.442 520.67 313.3 502.201 336.617C501.272 337.611 500.254 338.473 499.147 339.236C500.176 331.721 504.248 325.146 508.022 318.715C521.411 298.271 540.611 282.602 555.229 263.142C561.326 255.837 556.534 242.256 546.542 241.969C512.902 240.389 481.099 253.13 449.738 263.44C442.49 266.291 434.7 267.507 427.562 270.667C376.239 291.122 323.079 308.582 276.038 338.153C319.759 369.072 364.055 399.174 407.832 430.027C409.547 431.132 411.528 433.453 413.663 431.861C431.424 422.922 451.531 419.087 471.339 420.214C465.474 390.157 452.67 361.436 451.354 330.528C450.59 319.842 451.962 308.162 458.812 299.52C466.171 313.764 473.032 328.263 480.036 342.661C476.418 341.103 472.766 339.623 468.993 338.495C469.988 358.839 474.404 379.184 483.057 397.682C490.007 413.407 502.865 425.784 517.151 434.989C521.179 437.254 521.245 442.404 521.588 446.47C521.566 452.935 522.263 459.897 519.165 465.831C501.98 448.901 476.628 440.437 452.759 444.956C447.912 446.017 442.789 446.868 438.694 449.863C469.656 474.163 499.833 499.502 529.346 525.548C540.998 535.957 552.573 547.771 567.777 552.677C562.156 483.136 550.216 414.302 543.908 344.838C542.536 338.064 546.487 332.02 549.463 326.274C561.503 344.142 572.159 363.635 575.966 385.073C571.484 381.935 567.501 378.156 562.975 375.084C568.629 433.994 578.223 492.44 584.188 551.307C584.354 552.721 584.531 554.158 585.073 555.506C594.236 559.838 604.615 556.169 613.224 552.235C619.289 549.196 625.662 545.527 629.347 539.648C626.935 514.232 623.958 488.816 620.318 463.51C613.39 411.241 606.342 358.972 599.348 306.703C597.223 284.326 591.768 262.446 589.743 240.079C590.329 233.151 592.686 226.388 595.586 220.078C605.91 239.096 618.879 257.495 622.664 279.22C617.939 276.204 613.877 272.259 609.119 269.286C608.643 297.222 614.674 324.704 617.861 352.353C625.242 406.257 632.656 460.162 640.015 514.088C642.781 530.145 639.982 547.958 629.602 560.91C619.399 572.767 604.35 578.403 589.986 583.42C591.392 614.648 592.731 647.38 580.138 676.785C580.824 645.17 577.925 613.587 573.587 582.303C550.957 574.922 533.219 558.368 516.609 542.024C493.935 520.94 471.936 498.397 445.223 482.373C444.449 485.224 447.447 486.805 448.974 488.716C462.619 503.59 474.835 521.216 477.513 541.671C477.956 551.119 478.199 561.186 473.773 569.849C468.472 578.734 459.598 584.746 450.656 589.553C424.962 603.962 395.394 608.869 368.692 620.925C350.976 628.439 334.366 639.313 321.928 654.121C320.19 656.254 317.955 658.431 318.099 661.414C317.335 678.322 319.87 696.279 329.796 710.434C338.206 722.645 352.093 729.95 366.291 733.176C386.475 737.597 408.142 736.458 427.507 729.066C433.294 713.661 438.274 697.881 445.942 683.25C441.627 677.67 435.485 673.713 431.479 667.912C431.612 661.591 436.758 656.497 440.963 652.198C443.198 649.181 446.496 651.999 449.074 652.961C462.442 641.623 475.599 629.379 484.44 614.052C472.777 609.863 474.614 595.111 480.003 586.58C482.371 581.861 489.818 579.375 493.205 584.403C500.276 591.984 496.901 602.714 496.203 611.786C500.01 615.577 503.927 621.455 498.981 626.185C495.717 624.185 493.614 620.925 490.715 618.494C479.405 632.097 466.304 644.098 453.091 655.778C456.389 660.596 462.22 663.702 464.411 669.172C462.065 678.41 453.7 684.609 449.24 692.842C443.917 702.821 439.17 713.683 439.093 725.187C474.459 711.296 508.719 692.952 536.472 666.685C538.265 664.685 541.629 662.663 539.958 659.591C532.167 636.274 520.128 614.726 510.146 592.326C508.232 587.586 504.713 582.823 506.03 577.452C506.993 571.419 507.679 564.379 512.99 560.423C522.839 571.352 532.676 582.292 542.481 593.266C542.99 593.752 543.897 595.652 542.392 595.42C537.39 596.956 533.694 592.216 528.936 591.774C531.072 607.178 541.418 619.599 546.298 634.053C550.537 645.623 551.444 658.773 546.763 670.354C541.839 683.758 531.647 694.4 521.057 703.616C495.938 724.369 466.005 738.271 435.817 749.984C433.892 764.029 437.389 779.556 447.215 790.131C453.866 797.27 464.909 798.452 473.375 793.921C501.039 779.622 517.361 752.084 537.623 729.673C551.223 713.993 568.264 701.472 586.844 692.311C610.026 680.753 634.781 672.63 657.598 660.287C651.877 636.495 645.78 609.444 658.406 586.757C663.596 576.082 677.594 570.314 688.417 575.938C696.273 581.828 701.131 591.044 703.997 600.261C712.131 623.224 703.256 649.424 686.314 666.055C684.234 668.409 681.235 670.067 679.785 672.907C684.488 681.515 693.109 688.046 702.714 690.157C721.105 694.544 740.526 686.797 753.639 673.857C747.907 602.692 737.615 531.979 728.995 461.112C722.234 408.578 715.816 355.977 708.944 303.487C709.486 296.968 713.038 291.243 715.982 285.552C728.331 303.686 736.985 324.296 741.787 345.656C736.31 344.043 733.831 338.617 729.869 335.026C732.957 394.654 741.234 453.852 748.349 513.094C752.908 551.804 757.523 590.492 762.359 629.169C764.284 642.065 764.018 655.314 761.971 668.177C759.658 683.615 752.123 699.384 737.693 706.843C723.429 713.175 706.343 717.485 691.427 710.7C679.221 704.677 672.382 692.157 666.174 680.675C636.817 690.61 608.743 704.014 581.167 718.07C551.71 733.541 533.086 762.118 511.297 786.119C501.415 795.954 493.072 807.966 478.255 811.79C478.255 811.79 462.087 814.332 446.905 801.889C433.659 791.545 428.58 774.428 426.854 758.383C427.053 753.067 420.723 756.128 417.559 756.173C390.259 759.908 358.534 763.035 335.561 744.603C313.241 725.563 310.287 694.046 310.453 666.63C299.641 672.476 292.183 685.095 278.837 685.626C255.909 686.333 237.772 665.116 234.674 643.755C230.922 618.759 242.531 595.299 251.073 572.557C227.736 568.225 219.425 550.832 219.425 550.832C210.163 536.919 212.188 514.796 212.188 514.796C215.674 494.396 223.442 474.892 234.486 457.377C235.758 455.045 237.949 452.537 236.677 449.763C233.468 440.249 232.516 429.883 235.139 420.104C240.284 398.5 254.902 380.941 268.015 363.613C264.95 349.889 267.716 335.457 272.962 322.616C274.466 318.229 279.479 317.035 283.009 314.726C363.524 268.855 452.173 238.952 542.127 217.835Z" fill="#B28450"/>
</g>
<path d="M688.008 426.447C688.362 426.093 675.149 331.379 670.335 291.232C675.614 293.233 678.646 298.57 683.559 301.244C679.254 278.801 667.68 258.777 656.47 239.184C651.966 245.251 649.93 252.732 648.934 260.081C659.856 316.372 681.844 487.501 683.692 511.934C695.189 485.015 691.681 454.659 688.008 426.447Z" fill="#B28450"/>
<path d="M359.795 652.961C387.438 641.634 414.814 629.699 442.136 617.632C441.383 623.632 436.614 628.594 431.28 631.092C405.453 643.402 377.965 652.375 353.377 667.183C356.099 671.879 361.256 676.299 359.596 682.311C354.517 683.361 351.463 678.73 348.375 675.592C345.874 666.575 351.208 656.475 359.795 652.961Z" fill="#B28450"/>
<path d="M490.294 649.281C489.022 654.209 487.782 660 489.985 664.73C495.617 668.089 502.29 664.055 506.794 660.431C503.684 654.375 497.531 648.839 490.294 649.281ZM489.52 639.656C498.804 639.932 509.117 645.137 511.552 654.707C513.345 662.995 506.705 670.321 499.789 673.813C494.433 675.868 486.134 674.786 484.75 668.144C484.75 658.497 486.455 648.806 489.52 639.656Z" fill="#B28450"/>
<path d="M566.14 294.669C565.044 298.946 563.96 303.974 565.874 308.084C570.765 311.002 576.553 307.499 580.47 304.349C577.77 299.089 572.425 294.282 566.14 294.669ZM565.476 286.304C573.532 286.558 582.484 291.067 584.597 299.377C586.158 306.571 580.392 312.936 574.395 315.963C569.736 317.743 562.532 316.814 561.326 311.046C561.326 302.67 562.809 294.249 565.476 286.304Z" fill="#B28450"/>
<path d="M299.331 424.701C294.983 430.414 294.075 436.105 295.149 441.398C296.1 446.017 301.013 449.841 309.778 452.194C305.03 459.355 297.251 468.516 286.152 478.351C277.443 486.33 268.059 494.441 259.351 502.419C257.104 504.939 256.573 505.734 256.717 506.397L256.85 507.06C257.514 506.917 259.362 505.856 261.21 504.784C274.035 496.662 280.774 492.529 281.969 491.612C287.912 486.948 294.385 481.501 301.113 473.931C306.657 467.29 311.537 460.792 314.813 453.233C318.663 455.2 321.718 456.648 323.311 457.698C325.546 451.73 326.852 448.017 326.443 446.028C324.716 444.315 321.662 442.879 317.28 441.696C318.055 435.342 318.298 429.795 317.358 425.154C316.406 420.535 313.739 417.628 310.962 417.518C310.099 417.352 309.213 417.363 308.328 417.54C305.539 418.104 302.618 420.38 299.331 424.701ZM301.224 433.961C301.091 433.298 301.611 432.502 302.662 430.911C304.521 429.839 305.705 428.922 306.369 428.778C308.35 428.381 309.955 429.43 311.283 432.591C312.356 434.447 312.234 437.221 312.113 440.006C304.809 438.05 301.622 435.95 301.224 433.961Z" fill="#B28450"/>
<mask id="mask1_1_2" style="mask-type:luminance" maskUnits="userSpaceOnUse" x="254" y="415" width="75" height="95">
<path d="M254.493 415.695H328.147V509.049H254.493V415.695Z" fill="white"/>
</mask>
<g mask="url(#mask1_1_2)">
<mask id="mask2_1_2" style="mask-type:luminance" maskUnits="userSpaceOnUse" x="256" y="417" width="71" height="91">
<path d="M299.331 424.701C294.983 430.414 294.075 436.105 295.149 441.398C296.1 446.017 301.013 449.841 309.778 452.194C305.03 459.355 297.251 468.516 286.152 478.351C277.443 486.33 268.059 494.441 259.351 502.419C257.104 504.939 256.573 505.734 256.717 506.397L256.85 507.06C257.514 506.917 259.362 505.856 261.21 504.784C274.035 496.662 280.774 492.529 281.969 491.612C287.912 486.948 294.385 481.501 301.113 473.931C306.657 467.29 311.537 460.792 314.813 453.233C318.663 455.2 321.718 456.648 323.311 457.698C325.546 451.73 326.852 448.017 326.443 446.028C324.716 444.315 321.662 442.879 317.28 441.696C318.055 435.342 318.298 429.795 317.358 425.154C316.406 420.535 313.739 417.628 310.962 417.518C310.098 417.352 309.213 417.363 308.328 417.54C305.539 418.104 302.618 420.38 299.331 424.701ZM301.224 433.961C301.091 433.298 301.611 432.502 302.662 430.911C304.521 429.839 305.705 428.922 306.369 428.778C308.35 428.381 309.955 429.43 311.283 432.591C312.356 434.447 312.234 437.221 312.112 440.006C304.809 438.05 301.622 435.95 301.224 433.961Z" fill="white"/>
</mask>
<g mask="url(#mask2_1_2)">
<path d="M241.347 431.198L320.135 415.131L335.638 490.993L256.85 507.06L241.347 431.198Z" fill="#B28450"/>
</g>
</g>
<path d="M695.787 380.83C691.582 385.206 690.265 389.892 690.652 394.444C690.995 398.423 694.747 402.113 701.873 404.942C697.181 410.49 689.756 417.418 679.476 424.601C671.376 430.447 662.7 436.348 654.6 442.194C652.475 444.083 651.955 444.702 651.999 445.277L652.055 445.84C652.619 445.796 654.279 445.078 655.939 444.36C667.502 438.801 673.567 435.983 674.662 435.32C680.106 431.994 686.071 428.038 692.467 422.347C697.768 417.319 702.504 412.324 706 406.302C709.044 408.335 711.467 409.849 712.695 410.888C715.163 406.092 716.624 403.108 716.48 401.395C715.196 399.793 712.773 398.279 709.21 396.864C710.482 391.604 711.224 386.963 710.881 382.974C710.549 379.007 708.59 376.299 706.266 375.935C705.558 375.714 704.816 375.636 704.053 375.703C701.663 375.902 698.985 377.526 695.787 380.83ZM696.473 388.798C696.429 388.223 696.949 387.604 697.989 386.377C699.649 385.659 700.733 384.996 701.309 384.952C703.013 384.797 704.252 385.836 705.06 388.632C705.779 390.289 705.403 392.61 705.027 394.931C699.095 392.577 696.617 390.499 696.473 388.798Z" fill="#B28450"/>
<mask id="mask3_1_2" style="mask-type:luminance" maskUnits="userSpaceOnUse" x="651" y="373" width="69" height="74">
<path d="M651.092 373.26H719.08V446.813H651.092V373.26Z" fill="white"/>
</mask>
<g mask="url(#mask3_1_2)">
<mask id="mask4_1_2" style="mask-type:luminance" maskUnits="userSpaceOnUse" x="651" y="375" width="66" height="71">
<path d="M695.787 380.83C691.582 385.206 690.265 389.892 690.652 394.444C690.995 398.423 694.747 402.113 701.873 404.942C697.181 410.49 689.756 417.418 679.476 424.601C671.376 430.447 662.7 436.348 654.6 442.194C652.475 444.083 651.955 444.702 651.999 445.277L652.055 445.84C652.619 445.796 654.279 445.078 655.939 444.36C667.502 438.801 673.567 435.983 674.662 435.32C680.106 431.994 686.071 428.038 692.467 422.347C697.768 417.319 702.504 412.324 706 406.302C709.044 408.335 711.467 409.849 712.695 410.888C715.163 406.092 716.624 403.108 716.48 401.395C715.196 399.793 712.773 398.279 709.21 396.864C710.482 391.604 711.224 386.963 710.881 382.974C710.549 379.007 708.59 376.299 706.266 375.935C705.558 375.714 704.816 375.636 704.053 375.703C701.663 375.902 698.985 377.526 695.787 380.83ZM696.473 388.798C696.429 388.223 696.949 387.604 697.989 386.377C699.649 385.659 700.733 384.996 701.309 384.952C703.013 384.797 704.252 385.836 705.06 388.632C705.779 390.289 705.403 392.61 705.027 394.931C699.095 392.577 696.617 390.499 696.473 388.798Z" fill="white"/>
</mask>
<g mask="url(#mask4_1_2)">
<path d="M646.455 380.62L714.2 374.83L719.789 440.05L652.055 445.84L646.455 380.62Z" fill="#B28450"/>
</g>
</g>
<path d="M494.311 374.178C498.66 372.973 503.264 374.233 507.845 378.476C512.824 382.609 517.063 388.643 520.947 396.478C521.168 397.262 521.279 397.66 521.389 398.047C521.788 397.936 521.788 397.936 521.788 397.936C521.677 397.55 521.954 397.041 521.743 396.257C521.102 390.919 521.091 383.272 520.703 372.774C521.876 364.807 524.156 360.773 527.708 359.779C529.279 359.337 531.581 359.978 533.816 361.901C535.952 363.426 537.18 364.785 537.512 365.967C537.833 367.15 537.778 368.442 537.822 370.122C537.689 372.708 537.236 374.111 536.439 374.332C536.052 374.443 535.045 373.868 533.02 372.73C531.393 371.492 529.999 371.028 528.416 371.47C525.262 372.354 524.488 380.211 525.683 395.152C526.258 401.793 526.292 406.445 525.882 409.539C525.13 411.44 524.676 412.844 523.89 413.065C523.492 413.175 522.872 412.49 522.33 410.523C521.666 408.158 518.767 403.87 513.92 397.163C508.785 390.952 505.82 387.958 504.636 388.289C503.85 388.51 503.452 388.621 503.275 389.516C502.998 390.013 502.71 390.521 501.526 390.853C499.944 391.284 498.04 390.544 495.517 389.129C492.596 387.814 491.368 386.466 491.047 385.283C490.936 384.886 491.279 383.095 491.976 379.504C493.072 375.802 493.924 374.288 494.311 374.178Z" fill="#B28450"/>
<path d="M392.439 367.127C396.777 365.923 401.381 367.183 405.973 371.426C410.952 375.559 415.18 381.593 419.075 389.427C419.296 390.212 419.407 390.61 419.517 390.997C419.905 390.897 419.905 390.897 419.905 390.897C419.794 390.499 420.082 389.991 419.86 389.206C419.219 383.869 419.208 376.233 418.831 365.724C420.004 357.757 422.273 353.723 425.825 352.729C427.407 352.298 429.709 352.928 431.944 354.85C434.069 356.375 435.297 357.735 435.629 358.917C435.961 360.099 435.895 361.392 435.939 363.072C435.817 365.658 435.353 367.061 434.567 367.282C434.169 367.393 433.162 366.818 431.148 365.68C429.521 364.442 428.116 363.978 426.544 364.42C423.39 365.304 422.605 373.161 423.811 388.101C424.386 394.743 424.409 399.395 423.999 402.489C423.258 404.39 422.793 405.793 422.007 406.014C421.609 406.125 421 405.451 420.447 403.473C419.783 401.119 416.895 396.831 412.037 390.113C406.902 383.902 403.937 380.907 402.753 381.239C401.967 381.46 401.569 381.571 401.403 382.466C401.115 382.963 400.827 383.471 399.643 383.803C398.072 384.245 396.169 383.493 393.634 382.079C390.724 380.764 389.496 379.416 389.164 378.233C389.053 377.835 389.407 376.045 390.104 372.454C391.189 368.752 392.041 367.238 392.439 367.127Z" fill="#B28450"/>
<path d="M304.256 565.352C308.583 564.148 313.197 565.418 317.778 569.651C322.758 573.784 326.996 579.817 330.88 587.652C331.101 588.437 331.212 588.834 331.323 589.232C331.721 589.122 331.721 589.122 331.721 589.122C331.61 588.724 331.898 588.216 331.677 587.431C331.035 582.094 331.024 574.458 330.637 563.949C331.81 555.981 334.089 551.948 337.641 550.964C339.213 550.522 341.514 551.152 343.761 553.075C345.885 554.611 347.114 555.959 347.446 557.141C347.767 558.324 347.711 559.617 347.756 561.308C347.623 563.882 347.169 565.286 346.372 565.507C345.985 565.617 344.978 565.054 342.953 563.915C341.337 562.667 339.932 562.214 338.35 562.645C335.196 563.529 334.421 571.386 335.616 586.337C336.192 592.967 336.225 597.631 335.804 600.714C335.063 602.614 334.609 604.018 333.824 604.239C333.425 604.349 332.806 603.675 332.263 601.708C331.599 599.343 328.7 595.056 323.853 588.337C318.708 582.127 315.753 579.132 314.569 579.464C313.783 579.685 313.385 579.795 313.208 580.69C312.931 581.199 312.644 581.696 311.46 582.027C309.877 582.469 307.974 581.729 305.451 580.303C302.53 578.999 301.301 577.64 300.969 576.458C300.87 576.06 301.213 574.27 301.91 570.678C303.005 566.976 303.857 565.463 304.256 565.352Z" fill="#B28450"/>
<path d="M370.064 681.084C374.402 679.88 379.005 681.14 383.587 685.383C388.566 689.516 392.804 695.549 396.7 703.384C396.921 704.169 397.032 704.567 397.131 704.964C397.53 704.854 397.53 704.854 397.53 704.854C397.419 704.456 397.707 703.948 397.485 703.163C396.843 697.826 396.832 690.179 396.445 679.681C397.629 671.713 399.898 667.68 403.45 666.696C405.032 666.254 407.334 666.884 409.569 668.807C411.694 670.343 412.922 671.691 413.254 672.874C413.586 674.056 413.52 675.349 413.564 677.029C413.431 679.615 412.977 681.018 412.192 681.239C411.793 681.349 410.786 680.775 408.772 679.648C407.146 678.399 405.74 677.935 404.169 678.377C401.004 679.261 400.23 687.118 401.425 702.069C402.011 708.7 402.033 713.363 401.624 716.446C400.871 718.347 400.418 719.75 399.632 719.971C399.234 720.082 398.625 719.408 398.072 717.429C397.408 715.065 394.509 710.788 389.662 704.069C384.527 697.859 381.562 694.864 380.378 695.196C379.592 695.417 379.193 695.527 379.027 696.422C378.74 696.92 378.452 697.428 377.268 697.76C375.697 698.202 373.782 697.461 371.259 696.036C368.349 694.732 367.121 693.372 366.789 692.19C366.678 691.792 367.021 690.002 367.718 686.411C368.814 682.709 369.666 681.195 370.064 681.084Z" fill="#B28450"/>
<path d="M602.646 729.773C606.983 728.568 611.587 729.828 616.168 734.072C621.148 738.205 625.386 744.238 629.281 752.073C629.502 752.858 629.602 753.255 629.713 753.642C630.111 753.532 630.111 753.532 630.111 753.532C630 753.145 630.288 752.637 630.067 751.852C629.425 746.515 629.414 738.868 629.038 728.37C630.211 720.402 632.479 716.369 636.031 715.374C637.603 714.932 639.915 715.573 642.151 717.496C644.275 719.021 645.504 720.38 645.836 721.562C646.168 722.745 646.101 724.038 646.145 725.717C646.024 728.303 645.559 729.707 644.773 729.917C644.375 730.027 643.368 729.464 641.354 728.325C639.727 727.088 638.322 726.624 636.751 727.066C633.586 727.95 632.811 735.807 634.006 750.747C634.593 757.377 634.615 762.041 634.205 765.135C633.464 767.035 632.999 768.439 632.214 768.66C631.815 768.77 631.207 768.085 630.653 766.118C629.989 763.753 627.09 759.466 622.243 752.758C617.109 746.548 614.143 743.553 612.959 743.885C612.173 744.106 611.775 744.216 611.609 745.111C611.321 745.608 611.034 746.117 609.85 746.448C608.278 746.879 606.364 746.139 603.841 744.724C600.93 743.409 599.702 742.05 599.37 740.879C599.26 740.481 599.603 738.691 600.3 735.099C601.395 731.397 602.247 729.883 602.646 729.773Z" fill="#B28450"/>
<path d="M356.431 343.468C356.431 343.026 356.874 342.584 356.874 342.142C357.316 342.142 357.316 342.142 357.316 342.142C357.759 342.584 357.759 343.026 357.316 343.468C355.103 356.265 351.12 362.884 346.262 362.884C340.519 362.884 337.863 358.033 337.863 348.761C337.863 337.28 340.961 325.367 347.59 312.56C349.36 309.466 350.234 308.151 350.688 308.151C350.688 308.593 350.234 310.35 349.36 313.444C344.934 326.251 342.721 335.512 342.721 340.374C342.721 347.877 344.491 351.414 348.475 351.414C350.688 351.414 353.333 348.761 356.431 343.468Z" fill="#B28450"/>
<path d="M406.88 330.616C406.88 330.174 407.323 329.732 407.323 329.29C407.766 329.29 407.766 329.29 407.766 329.29C408.208 329.732 408.208 330.174 407.766 330.616C405.563 343.413 401.58 350.032 396.722 350.032C390.968 350.032 388.323 345.181 388.323 335.91C388.323 324.428 391.41 312.516 398.039 299.708C399.809 296.614 400.694 295.299 401.137 295.299C401.137 295.741 400.694 297.498 399.809 300.592C395.394 313.4 393.181 322.66 393.181 327.522C393.181 335.026 394.951 338.562 398.924 338.562C401.137 338.562 403.793 335.91 406.88 330.616Z" fill="#B28450"/>
<path d="M501.305 294.371C501.305 293.995 501.681 293.608 501.681 293.233C502.068 293.233 502.068 293.233 502.068 293.233C502.445 293.608 502.445 293.995 502.068 294.371C500.154 305.454 496.713 311.19 492.497 311.19C487.528 311.19 485.226 306.99 485.226 298.957C485.226 289.022 487.904 278.712 493.647 267.628C495.174 264.954 495.949 263.805 496.325 263.805C496.325 264.192 495.949 265.717 495.174 268.391C491.346 279.475 489.442 287.497 489.442 291.708C489.442 298.194 490.969 301.255 494.411 301.255C496.325 301.255 498.627 298.957 501.305 294.371Z" fill="#B28450"/>
<path d="M646.688 346.386C646.632 346.01 646.964 345.579 646.909 345.203C647.285 345.148 647.285 345.148 647.285 345.148C647.717 345.479 647.772 345.855 647.451 346.286C647.064 357.525 644.43 363.669 640.258 364.243C635.334 364.917 632.49 361.072 631.395 353.115C630.034 343.28 631.284 332.683 635.456 320.925C636.607 318.074 637.204 316.825 637.592 316.781C637.636 317.157 637.47 318.726 637.071 321.478C634.792 332.981 633.995 341.192 634.571 345.358C635.456 351.789 637.392 354.607 640.801 354.143C642.693 353.878 644.663 351.292 646.688 346.386Z" fill="#B28450"/>
<path d="M602.347 442.15C602.258 441.741 602.568 441.243 602.491 440.846C602.889 440.757 602.889 440.757 602.889 440.757C603.387 441.067 603.476 441.475 603.155 441.973C603.719 454.217 601.395 461.134 596.914 462.107C591.613 463.278 588.183 459.333 586.301 450.791C583.978 440.205 584.409 428.602 587.928 415.451C588.935 412.247 589.477 410.843 589.887 410.766C589.975 411.164 589.931 412.888 589.743 415.905C588.26 428.602 588.105 437.597 589.09 442.072C590.606 448.99 592.952 451.896 596.626 451.089C598.662 450.636 600.565 447.664 602.347 442.15Z" fill="#B28450"/>
<path d="M718.162 480.904C718.118 480.495 718.494 480.042 718.461 479.622C718.87 479.589 718.87 479.589 718.87 479.589C719.324 479.964 719.368 480.373 718.992 480.826C718.007 493.048 714.842 499.612 710.272 500.032C704.872 500.53 701.961 496.187 701.165 487.479C700.169 476.694 702.061 465.223 707.185 452.625C708.59 449.564 709.298 448.249 709.719 448.205C709.752 448.625 709.486 450.316 708.922 453.3C705.879 465.709 704.595 474.616 705.016 479.18C705.657 486.23 707.616 489.402 711.356 489.059C713.437 488.871 715.705 486.153 718.162 480.904Z" fill="#B28450"/>
<path d="M736.144 642.96C736.1 642.54 736.476 642.087 736.443 641.678C736.863 641.634 736.863 641.634 736.863 641.634C737.317 642.01 737.35 642.43 736.974 642.883C736 655.104 732.824 661.669 728.254 662.088C722.854 662.575 719.943 658.243 719.147 649.524C718.162 638.739 720.043 627.279 725.178 614.671C726.572 611.621 727.28 610.295 727.701 610.261C727.734 610.67 727.479 612.372 726.915 615.345C723.861 627.765 722.577 636.661 722.998 641.225C723.639 648.286 725.609 651.447 729.349 651.104C731.419 650.916 733.687 648.198 736.144 642.96Z" fill="#B28450"/>
<mask id="mask5_1_2" style="mask-type:luminance" maskUnits="userSpaceOnUse" x="795" y="455" width="17" height="49">
<path d="M795.567 455.3H812V503.392H795.567V455.3Z" fill="white"/>
</mask>
<g mask="url(#mask5_1_2)">
<path d="M811.093 485.578C811.037 485.225 811.336 484.816 811.281 484.451C811.646 484.396 811.646 484.396 811.646 484.396C812.055 484.705 812.111 485.059 811.801 485.468C811.58 496.054 809.178 501.878 805.261 502.474C800.624 503.171 797.902 499.579 796.773 492.109C795.368 482.849 796.408 472.87 800.193 461.742C801.244 459.035 801.797 457.852 802.151 457.808C802.207 458.162 802.063 459.632 801.731 462.239C799.728 473.091 799.075 480.837 799.662 484.749C800.58 490.805 802.439 493.435 805.648 492.949C807.43 492.684 809.245 490.219 811.093 485.578Z" fill="#B28450"/>
</g>
<path d="M543.875 493.601C543.842 493.214 544.185 492.805 544.152 492.418C544.528 492.385 544.528 492.385 544.528 492.385C544.948 492.728 544.982 493.115 544.639 493.535C543.742 504.784 540.821 510.829 536.616 511.215C531.636 511.668 528.958 507.679 528.228 499.657C527.321 489.722 529.047 479.158 533.772 467.555C535.056 464.748 535.72 463.532 536.096 463.488C536.14 463.875 535.897 465.444 535.377 468.185C532.566 479.611 531.382 487.81 531.769 492.01C532.367 498.507 534.17 501.425 537.612 501.104C539.526 500.927 541.618 498.43 543.875 493.601Z" fill="#B28450"/>
<path d="M289.04 618.339C289.007 617.953 289.35 617.544 289.317 617.157C289.704 617.124 289.704 617.124 289.704 617.124C290.114 617.466 290.158 617.853 289.804 618.273C288.907 629.522 285.986 635.567 281.781 635.954C276.812 636.407 274.124 632.418 273.393 624.395C272.486 614.461 274.223 603.896 278.937 592.293C280.232 589.486 280.885 588.271 281.272 588.227C281.305 588.613 281.062 590.183 280.542 592.923C277.731 604.349 276.547 612.549 276.934 616.748C277.532 623.246 279.347 626.163 282.788 625.843C284.691 625.666 286.783 623.168 289.04 618.339Z" fill="#B28450"/>
<path d="M303.382 709.595C303.359 709.285 303.636 708.943 303.614 708.633C303.924 708.611 303.924 708.611 303.924 708.611C304.256 708.887 304.289 709.208 304.001 709.539C303.271 718.7 300.903 723.618 297.472 723.938C293.422 724.303 291.242 721.054 290.645 714.523C289.903 706.445 291.32 697.848 295.16 688.4C296.211 686.112 296.742 685.129 297.063 685.096C297.085 685.405 296.886 686.676 296.465 688.908C294.175 698.213 293.223 704.887 293.533 708.302C294.02 713.595 295.492 715.96 298.291 715.706C299.852 715.562 301.545 713.529 303.382 709.595Z" fill="#B28450"/>
<path d="M412.745 787.291C412.723 786.971 413 786.639 412.977 786.33C413.287 786.296 413.287 786.296 413.287 786.296C413.63 786.584 413.653 786.893 413.376 787.236C412.646 796.386 410.266 801.303 406.847 801.624C402.797 801.988 400.617 798.739 400.019 792.209C399.278 784.131 400.683 775.533 404.534 766.096C405.574 763.798 406.117 762.814 406.427 762.781C406.449 763.09 406.261 764.372 405.829 766.604C403.538 775.898 402.587 782.572 402.897 785.987C403.383 791.28 404.855 793.656 407.655 793.391C409.215 793.258 410.908 791.214 412.745 787.291Z" fill="#B28450"/>
<path d="M680.328 738.061C680.295 737.696 680.638 737.287 680.604 736.912C680.981 736.867 680.981 736.867 680.981 736.867C681.39 737.21 681.423 737.586 681.091 737.995C680.206 749.067 677.329 755.012 673.19 755.388C668.299 755.83 665.666 751.907 664.946 744.017C664.05 734.248 665.754 723.872 670.402 712.457C671.663 709.694 672.316 708.501 672.692 708.468C672.726 708.843 672.493 710.379 671.973 713.076C669.207 724.314 668.056 732.37 668.432 736.503C669.018 742.89 670.789 745.752 674.186 745.443C676.056 745.277 678.115 742.813 680.328 738.061Z" fill="#B28450"/>
<path d="M630.211 626.473C629.868 629.29 628.805 631.047 627.743 632.108C624.224 634.219 615.77 639.844 603.088 648.64C602.734 648.994 602.026 649.347 601.329 650.043C600.975 649.701 600.975 649.701 600.975 649.347L601.683 644.772C601.683 643.711 603.797 641.601 608.024 638.44C603.088 636.672 600.621 634.562 600.621 631.755C600.621 628.583 601.683 625.776 604.494 622.605C609.429 616.273 613.656 613.455 617.175 613.455C619.997 613.455 621.756 614.869 621.756 618.384C621.756 620.494 620.705 622.605 619.289 625.423C618.935 626.13 618.237 625.776 617.883 625.069C617.175 622.958 615.77 622.251 614.364 622.251C612.948 622.251 611.543 622.605 609.783 624.008C608.378 625.069 607.315 626.13 607.315 626.826C607.315 627.887 608.378 628.937 610.48 629.998C612.594 631.047 614.01 631.755 615.416 631.755C616.478 631.755 618.592 631.047 621.402 629.29C623.516 627.887 625.286 626.473 627.4 625.423C629.159 624.362 629.868 624.008 630.211 624.362C630.565 624.362 630.565 625.069 630.211 626.473Z" fill="#B28450"/>
<path d="M396.058 535.538L403.417 520.343C403.915 519.371 404.402 518.873 405.386 518.873C406.36 518.873 410.289 521.327 417.647 526.233C425.017 531.128 428.448 534.068 428.448 535.051C428.448 537.991 425.504 544.853 419.13 555.141C418.145 556.611 417.16 557.108 416.674 556.125C410.289 551.716 402.93 546.809 395.073 541.417C392.627 547.793 389.673 552.699 387.227 557.108C386.243 558.092 385.756 558.578 384.771 558.092C377.412 552.202 370.042 547.306 362.683 542.4C362.196 542.4 362.196 541.914 362.683 540.93L371.514 521.824C372.499 520.84 372.997 520.343 373.484 520.343C374.468 520.343 377.899 522.31 384.284 526.719C390.171 530.642 394.099 533.582 396.058 535.538Z" fill="#B28450"/>
<path d="M686.812 527.559L694.182 512.365C694.669 511.381 695.156 510.895 696.141 510.895C697.126 510.895 701.054 513.348 708.413 518.244C715.772 523.15 719.213 526.09 719.213 527.062C719.213 530.001 716.27 536.875 709.885 547.163C708.9 548.633 707.926 549.119 707.428 548.135C701.054 543.726 693.684 538.831 685.839 533.438C683.382 539.803 680.438 544.71 677.982 549.119C676.997 550.102 676.51 550.589 675.525 550.102C668.166 544.223 660.808 539.317 653.438 534.422C652.951 534.422 652.951 533.924 653.438 532.952L662.279 513.834C663.264 512.851 663.751 512.365 664.238 512.365C665.223 512.365 668.653 514.321 675.038 518.741C680.925 522.653 684.854 525.592 686.812 527.559Z" fill="#B28450"/>
<path d="M460.217 212.32C421.974 226.741 384.439 240.433 349.083 253.406C346.915 257.727 345.465 262.048 344.746 266.38C388.046 248.367 426.301 233.946 458.779 221.702C459.498 220.973 460.948 218.807 462.386 214.486C463.106 213.05 463.106 212.32 463.106 212.32C462.862 212.088 462.63 212 462.364 212C461.822 212 461.18 212.32 460.217 212.32Z" fill="#B28450"/>
<mask id="mask6_1_2" style="mask-type:luminance" maskUnits="userSpaceOnUse" x="342" y="212" width="123" height="57">
<path d="M342.311 212.011H464.124V268.59H342.311V212.011Z" fill="white"/>
</mask>
<g mask="url(#mask6_1_2)">
<mask id="mask7_1_2" style="mask-type:luminance" maskUnits="userSpaceOnUse" x="344" y="212" width="120" height="55">
<path d="M460.218 212.32C421.974 226.741 384.439 240.433 349.083 253.406C346.915 257.727 345.465 262.048 344.746 266.38C388.046 248.367 426.301 233.946 458.779 221.702C459.498 220.973 460.948 218.807 462.386 214.486C463.106 213.05 463.106 212.32 463.106 212.32C462.862 212.088 462.63 212 462.364 212C461.822 212 461.18 212.32 460.218 212.32Z" fill="white"/>
</mask>
<g mask="url(#mask7_1_2)">
<path d="M344.746 212H463.106V266.38H344.746V212Z" fill="#B28450"/>
</g>
</g>
<path d="M621.745 502.154C609.009 509.591 596.471 516.741 584.675 523.493C584.166 525.161 583.911 526.786 583.911 528.366C598.242 519.338 610.978 511.901 621.801 505.58C622.011 505.27 622.398 504.419 622.653 502.784C622.819 502.231 622.774 501.977 622.774 501.977C622.675 501.911 622.586 501.889 622.487 501.911C622.299 501.944 622.088 502.088 621.745 502.154Z" fill="#B28450"/>
<mask id="mask8_1_2" style="mask-type:luminance" maskUnits="userSpaceOnUse" x="583" y="500" width="43" height="29">
<path d="M583.103 500.563H625.596V528.852H583.103V500.563Z" fill="white"/>
</mask>
<g mask="url(#mask8_1_2)">
<mask id="mask9_1_2" style="mask-type:luminance" maskUnits="userSpaceOnUse" x="583" y="501" width="40" height="28">
<path d="M621.745 502.154C609.009 509.591 596.471 516.741 584.675 523.493C584.166 525.161 583.911 526.786 583.911 528.366C598.242 519.338 610.978 511.901 621.801 505.58C622.011 505.27 622.398 504.419 622.653 502.784C622.819 502.231 622.774 501.977 622.774 501.977C622.675 501.911 622.586 501.889 622.487 501.911C622.299 501.944 622.088 502.088 621.745 502.154Z" fill="white"/>
</mask>
<g mask="url(#mask9_1_2)">
<path d="M580.625 509.016L622.752 501.867L626.05 521.216L583.911 528.366L580.625 509.016Z" fill="#B28450"/>
</g>
</g>
<path d="M758.984 392.146C758.442 383.604 756.704 377.106 754.391 371.979C754.181 368.686 755.697 361.326 759.592 349.855C760.168 348.496 760.776 347.8 761.44 347.756C762.093 347.723 762.801 348.33 763.587 350.264C765.07 352.806 768.202 360.53 774.31 373.349C780.463 386.82 784.302 395.152 785.165 398.4C785.951 400.334 786.084 402.301 786.161 403.616C786.416 407.572 782.963 405.141 775.206 397.715C774.465 396.445 773.856 397.141 773.978 399.119C774.022 399.771 777.674 425.949 784.291 477.677C791.562 529.371 795.379 558.18 795.811 564.755C797.106 585.132 794.903 602.449 789.946 617.942C788.839 621.312 788.308 623.334 787.08 624.727C786.582 627.401 785.929 627.445 785.188 626.174C785.055 624.196 784.889 621.566 785.21 616.262C785.453 609.643 785.608 601.719 785.022 592.514C784.468 583.961 779.699 550.6 771.92 491.015C764.185 432.094 759.404 398.721 758.984 392.146Z" fill="#B28450"/>
<defs>
<filter id="filter0_d_1_2" x="184.497" y="186.497" width="653.005" height="653.005" filterUnits="userSpaceOnUse" color-interpolation-filters="sRGB">
<feFlood flood-opacity="0" result="BackgroundImageFix"/>
<feColorMatrix in="SourceAlpha" type="matrix" values="0 0 0 0 0 0 0 0 0 0 0 0 0 0 0 0 0 0 127 0" result="hardAlpha"/>
<feOffset dx="1" dy="1"/>
<feGaussianBlur stdDeviation="3"/>
<feComposite in2="hardAlpha" operator="out"/>
<feColorMatrix type="matrix" values="0 0 0 0 0 0 0 0 0 0 0 0 0 0 0 0 0 0 0.31 0"/>
<feBlend mode="normal" in2="BackgroundImageFix" result="effect1_dropShadow_1_2"/>
<feBlend mode="normal" in="SourceGraphic" in2="effect1_dropShadow_1_2" result="shape"/>
</filter>
<filter id="filter1_d_1_2" x="169.497" y="170.497" width="683.005" height="683.005" filterUnits="userSpaceOnUse" color-interpolation-filters="sRGB">
<feFlood flood-opacity="0" result="BackgroundImageFix"/>
<feColorMatrix in="SourceAlpha" type="matrix" values="0 0 0 0 0 0 0 0 0 0 0 0 0 0 0 0 0 0 127 0" result="hardAlpha"/>
<feOffset dx="1" dy="1"/>
<feGaussianBlur stdDeviation="3"/>
<feComposite in2="hardAlpha" operator="out"/>
<feColorMatrix type="matrix" values="0 0 0 0 0 0 0 0 0 0 0 0 0 0 0 0 0 0 0.31 0"/>
<feBlend mode="normal" in2="BackgroundImageFix" result="effect1_dropShadow_1_2"/>
<feBlend mode="normal" in="SourceGraphic" in2="effect1_dropShadow_1_2" result="shape"/>
</filter>
<filter id="filter2_d_1_2" x="154.497" y="155.497" width="713.005" height="713.005" filterUnits="userSpaceOnUse" color-interpolation-filters="sRGB">
<feFlood flood-opacity="0" result="BackgroundImageFix"/>
<feColorMatrix in="SourceAlpha" type="matrix" values="0 0 0 0 0 0 0 0 0 0 0 0 0 0 0 0 0 0 127 0" result="hardAlpha"/>
<feOffset dx="1" dy="1"/>
<feGaussianBlur stdDeviation="3"/>
<feComposite in2="hardAlpha" operator="out"/>
<feColorMatrix type="matrix" values="0 0 0 0 0 0 0 0 0 0 0 0 0 0 0 0 0 0 0.31 0"/>
<feBlend mode="normal" in2="BackgroundImageFix" result="effect1_dropShadow_1_2"/>
<feBlend mode="normal" in="SourceGraphic" in2="effect1_dropShadow_1_2" result="shape"/>
</filter>
<filter id="filter3_d_1_2" x="140.497" y="140.497" width="741.853" height="743.505" filterUnits="userSpaceOnUse" color-interpolation-filters="sRGB">
<feFlood flood-opacity="0" result="BackgroundImageFix"/>
<feColorMatrix in="SourceAlpha" type="matrix" values="0 0 0 0 0 0 0 0 0 0 0 0 0 0 0 0 0 0 127 0" result="hardAlpha"/>
<feOffset dx="1" dy="1"/>
<feGaussianBlur stdDeviation="3"/>
<feComposite in2="hardAlpha" operator="out"/>
<feColorMatrix type="matrix" values="0 0 0 0 0 0 0 0 0 0 0 0 0 0 0 0 0 0 0.31 0"/>
<feBlend mode="normal" in2="BackgroundImageFix" result="effect1_dropShadow_1_2"/>
<feBlend mode="normal" in="SourceGraphic" in2="effect1_dropShadow_1_2" result="shape"/>
</filter>
<filter id="filter4_d_1_2" x="34" y="29" width="956" height="967.5" filterUnits="userSpaceOnUse" color-interpolation-filters="sRGB">
<feFlood flood-opacity="0" result="BackgroundImageFix"/>
<feColorMatrix in="SourceAlpha" type="matrix" values="0 0 0 0 0 0 0 0 0 0 0 0 0 0 0 0 0 0 127 0" result="hardAlpha"/>
<feOffset dx="1" dy="1"/>
<feGaussianBlur stdDeviation="3"/>
<feComposite in2="hardAlpha" operator="out"/>
<feColorMatrix type="matrix" values="0 0 0 0 0 0 0 0 0 0 0 0 0 0 0 0 0 0 0.31 0"/>
<feBlend mode="normal" in2="BackgroundImageFix" result="effect1_dropShadow_1_2"/>
<feBlend mode="normal" in="SourceGraphic" in2="effect1_dropShadow_1_2" result="shape"/>
</filter>
<radialGradient id="paint0_angular_1_2" cx="0" cy="0" r="1" gradientUnits="userSpaceOnUse" gradientTransform="translate(512.751 512) rotate(90) scale(451.582 451.991)">
<stop offset="0.187875" stop-color="#D4AD68"/>
<stop offset="0.386524" stop-color="#D4AD68"/>
<stop offset="0.614583" stop-color="#D4AD68"/>
<stop offset="0.895924" stop-color="#D4AD68"/>
</radialGradient>
</defs>
</svg>
